{
	"asset":{
		"generator":"Khronos glTF Blender I/O v4.2.60",
		"version":"2.0"
	},
	"scene":0,
	"scenes":[
		{
			"name":"Scene",
			"nodes":[
				25,
				26,
				27,
				28,
				29,
				30
			]
		}
	],
	"nodes":[
		{
			"mesh":0,
			"name":"Cube.002",
			"rotation":[
				-0.7437558174133301,
				-0.6684513688087463,
				-2.0176425152840238e-07,
				1.9456662059269547e-08
			],
			"scale":[
				0.23895591497421265,
				0.5805345773696899,
				0.1751457005739212
			],
			"translation":[
				0.4503978192806244,
				-0.03940758481621742,
				-0.007351570762693882
			]
		},
		{
			"children":[
				0
			],
			"name":"L_Foot",
			"rotation":[
				1.23237867910575e-07,
				7.976709071044752e-08,
				-0.6772564649581909,
				0.7357470989227295
			],
			"scale":[
				0.9999999403953552,
				0.9999998807907104,
				0.9999999403953552
			],
			"translation":[
				8.873257684172131e-11,
				0.8849344849586487,
				1.1863890136964983e-07
			]
		},
		{
			"mesh":1,
			"name":"Cube.005",
			"rotation":[
				-0.9999291896820068,
				0.011902167461812496,
				-2.061156862964708e-07,
				2.2433310320479904e-08
			],
			"scale":[
				0.23895591497421265,
				0.5805344581604004,
				0.17514562606811523
			],
			"translation":[
				-0.0020484530832618475,
				0.43282073736190796,
				-0.007351399399340153
			]
		},
		{
			"children":[
				1,
				2
			],
			"name":"L_LowerLeg",
			"rotation":[
				-0.004218428861349821,
				8.58348430483602e-05,
				0.0034647569991648197,
				0.9999850988388062
			],
			"scale":[
				0.9999999403953552,
				0.9999999403953552,
				1
			],
			"translation":[
				-2.3283064365386963e-09,
				0.8321720361709595,
				-7.19540906857219e-08
			]
		},
		{
			"mesh":2,
			"name":"Cube.003",
			"rotation":[
				0.9999555349349976,
				-0.00843747891485691,
				-3.5414359444985166e-05,
				0.004219128284603357
			],
			"scale":[
				0.23895590007305145,
				0.5805343985557556,
				0.17514568567276
			],
			"translation":[
				-0.010424050502479076,
				0.5481242537498474,
				-0.012878823094069958
			]
		},
		{
			"children":[
				3,
				4
			],
			"name":"L_UpperLeg",
			"rotation":[
				0.7070501446723938,
				-0.008949553593993187,
				-0.707100510597229,
				0.002982809441164136
			],
			"scale":[
				1,
				1.0000001192092896,
				1
			],
			"translation":[
				-0.3545757532119751,
				1.8876909017562866,
				-0.03510654717683792
			]
		},
		{
			"mesh":3,
			"name":"Cube.008",
			"rotation":[
				-4.9451255534904703e-08,
				2.063237616312108e-07,
				0.7437558174133301,
				0.6684513688087463
			],
			"scale":[
				0.23895591497421265,
				0.5805345177650452,
				0.1751457005739212
			],
			"translation":[
				-0.4503978490829468,
				-0.03940756991505623,
				-0.7158421874046326
			]
		},
		{
			"children":[
				6
			],
			"name":"R_Foot",
			"rotation":[
				1.23237867910575e-07,
				-7.976709071044752e-08,
				0.6772564649581909,
				0.7357470989227295
			],
			"scale":[
				0.9999999403953552,
				0.9999998807907104,
				0.9999999403953552
			],
			"translation":[
				1.184758957606391e-10,
				0.8849344253540039,
				-2.389889743881213e-07
			]
		},
		{
			"mesh":4,
			"name":"Cube.009",
			"rotation":[
				1.3162664913579647e-07,
				2.6453406576365524e-08,
				-0.9999291896820068,
				0.011902167461812496
			],
			"scale":[
				0.23895588517189026,
				0.5805344581604004,
				0.17514564096927643
			],
			"translation":[
				0.0020484046544879675,
				0.43282055854797363,
				-0.7158424854278564
			]
		},
		{
			"children":[
				7,
				8
			],
			"name":"R_LowerLeg",
			"rotation":[
				-0.004218428861349821,
				-8.58348430483602e-05,
				-0.0034647569991648197,
				0.9999850988388062
			],
			"scale":[
				0.9999999403953552,
				0.9999999403953552,
				1
			],
			"translation":[
				2.35741026699543e-09,
				0.832172155380249,
				4.048830533065484e-07
			]
		},
		{
			"mesh":5,
			"name":"Cube.010",
			"rotation":[
				3.575210212147795e-05,
				-0.004219125024974346,
				-0.9999555349349976,
				0.008437479846179485
			],
			"scale":[
				0.23895590007305145,
				0.5805344581604004,
				0.17514567077159882
			],
			"translation":[
				0.010422428138554096,
				0.5482063889503479,
				-0.0031588557176291943
			]
		},
		{
			"children":[
				9,
				10
			],
			"name":"R_UpperLeg",
			"rotation":[
				0.7070501446723938,
				0.008949553593993187,
				0.707100510597229,
				0.002982809441164136
			],
			"scale":[
				1,
				1.0000001192092896,
				1
			],
			"translation":[
				0.35457563400268555,
				1.8876909017562866,
				-0.03510654717683792
			]
		},
		{
			"mesh":6,
			"name":"Cube.013",
			"rotation":[
				0.009984351694583893,
				0.010288819670677185,
				0.9998959302902222,
				0.001609400613233447
			],
			"scale":[
				0.9999996423721313,
				0.9999997615814209,
				0.9999997019767761
			],
			"translation":[
				0.9315810203552246,
				2.598130226135254,
				-0.04042646288871765
			]
		},
		{
			"children":[
				12
			],
			"name":"R_LowerArm",
			"rotation":[
				0.010577616281807423,
				0.00015855465608183295,
				0.015218432061374187,
				0.9998282194137573
			],
			"scale":[
				1,
				1.0000001192092896,
				1
			],
			"translation":[
				3.7567224353551865e-07,
				1.151926875114441,
				-2.7939677238464355e-09
			]
		},
		{
			"mesh":7,
			"name":"Cube.007",
			"rotation":[
				0.6999328136444092,
				0.009795010089874268,
				-0.7140769958496094,
				0.009600883349776268
			],
			"scale":[
				0.16553154587745667,
				0.19576974213123322,
				0.16553154587745667
			],
			"translation":[
				0.010398443788290024,
				0.4064498543739319,
				0.0076097771525382996
			]
		},
		{
			"children":[
				13,
				14
			],
			"name":"R_UpperArm",
			"rotation":[
				0.01014020200818777,
				-0.010286659002304077,
				0.9998030066490173,
				0.013612732291221619
			],
			"scale":[
				1.0000003576278687,
				1.0000001192092896,
				1.000000238418579
			],
			"translation":[
				0.954897403717041,
				1.5704330205917358,
				0.0002852915786206722
			]
		},
		{
			"mesh":8,
			"name":"Cube.004",
			"rotation":[
				0.009984373115003109,
				-0.010288821533322334,
				-0.9998959302902222,
				0.0016094021266326308
			],
			"scale":[
				1,
				0.9999997615814209,
				1.0000001192092896
			],
			"translation":[
				-0.9315816164016724,
				2.598129987716675,
				-0.04042656719684601
			]
		},
		{
			"children":[
				16
			],
			"name":"L_LowerArm",
			"rotation":[
				0.010577618144452572,
				-0.00015853880904614925,
				-0.01521842647343874,
				0.9998282194137573
			],
			"scale":[
				0.9999999403953552,
				1.0000001192092896,
				1
			],
			"translation":[
				1.3015232980251312e-07,
				1.1519267559051514,
				-1.6298145055770874e-09
			]
		},
		{
			"mesh":9,
			"name":"Cube.006",
			"rotation":[
				-0.7140772342681885,
				0.009600884281098843,
				0.6999325752258301,
				0.009794997982680798
			],
			"scale":[
				0.16553159058094025,
				0.19576972723007202,
				0.16553159058094025
			],
			"translation":[
				-0.020112181082367897,
				0.40671658515930176,
				0.0074160173535346985
			]
		},
		{
			"children":[
				17,
				18
			],
			"name":"L_UpperArm",
			"rotation":[
				0.010140446946024895,
				0.01028665341436863,
				-0.9998030066490173,
				0.01361272856593132
			],
			"scale":[
				1.000000238418579,
				1.000000238418579,
				1.000000238418579
			],
			"translation":[
				-0.9548970460891724,
				1.5704330205917358,
				0.00028483252390287817
			]
		},
		{
			"mesh":10,
			"name":"Cube.001",
			"rotation":[
				1.3170885493352102e-09,
				0.7071068286895752,
				1.3170888824021176e-09,
				0.7071067094802856
			],
			"scale":[
				0.4029054045677185,
				0.40290552377700806,
				0.40290552377700806
			],
			"translation":[
				0.004859957378357649,
				0.5928919315338135,
				-0.10825949907302856
			]
		},
		{
			"children":[
				20
			],
			"name":"Head",
			"rotation":[
				0.010150864720344543,
				6.039577339763888e-14,
				2.4201549653213306e-09,
				0.9999485015869141
			],
			"scale":[
				1,
				1.0000001192092896,
				1.000000238418579
			],
			"translation":[
				-1.1834866420201706e-08,
				1.7599691152572632,
				0.004133564420044422
			]
		},
		{
			"mesh":11,
			"name":"Cube",
			"rotation":[
				0.007177744060754776,
				0.7070704102516174,
				0.007177748251706362,
				0.7070702910423279
			],
			"scale":[
				1.0000001192092896,
				1.0000001192092896,
				1
			],
			"translation":[
				0.004860392305999994,
				-0.2548842132091522,
				-0.007904843427240849
			]
		},
		{
			"children":[
				15,
				19,
				21,
				22
			],
			"name":"Chest",
			"rotation":[
				-0.010150868445634842,
				1.192031149344075e-07,
				-1.2100772606160604e-09,
				0.9999485015869141
			],
			"scale":[
				0.9999999403953552,
				0.9999998211860657,
				0.9999999403953552
			],
			"translation":[
				0,
				2.1825857162475586,
				-5.820766091346741e-11
			]
		},
		{
			"children":[
				23
			],
			"name":"Root",
			"scale":[
				0.9999999403953552,
				0.9999999403953552,
				0.9999999403953552
			],
			"translation":[
				0,
				0,
				-5.820766091346741e-11
			]
		},
		{
			"children":[
				5,
				11,
				24
			],
			"name":"Armature",
			"scale":[
				0.3773663341999054,
				0.3773663341999054,
				0.3773663341999054
			],
			"translation":[
				0.8624176979064941,
				0.007694771513342857,
				0.0002957340329885483
			]
		},
		{
			"name":"Empty",
			"scale":[
				0.3773663341999054,
				0.3773663341999054,
				0.3773663341999054
			],
			"translation":[
				0.9988722801208496,
				0.07221796363592148,
				0.0002956222742795944
			]
		},
		{
			"name":"Empty.001",
			"scale":[
				0.3773663341999054,
				0.3773663341999054,
				0.3773663341999054
			],
			"translation":[
				0.9988722205162048,
				0.04569896310567856,
				-0.24743977189064026
			]
		},
		{
			"name":"Empty.002",
			"scale":[
				0.3773663341999054,
				0.3773663341999054,
				0.3773663341999054
			],
			"translation":[
				0.7259632349014282,
				0.045721910893917084,
				-0.24744227528572083
			]
		},
		{
			"name":"Empty.003",
			"scale":[
				0.3773663341999054,
				0.3773663341999054,
				0.3773663341999054
			],
			"translation":[
				0.7259630560874939,
				0.07221769541501999,
				0.0002956520766019821
			]
		},
		{
			"name":"Empty.004",
			"scale":[
				0.3773663341999054,
				0.3773663341999054,
				0.3773663341999054
			],
			"translation":[
				0.8624176979064941,
				0.007694771513342857,
				0.0002957340329885483
			]
		}
	],
	"materials":[
		{
			"doubleSided":true,
			"name":"Material.001",
			"pbrMetallicRoughness":{
				"baseColorTexture":{
					"index":0
				},
				"metallicFactor":0,
				"roughnessFactor":0.5
			}
		}
	],
	"meshes":[
		{
			"name":"Cube.003",
			"primitives":[
				{
					"attributes":{
						"POSITION":0,
						"NORMAL":1,
						"TEXCOORD_0":2
					},
					"indices":3,
					"material":0
				}
			]
		},
		{
			"name":"Cube.010",
			"primitives":[
				{
					"attributes":{
						"POSITION":4,
						"NORMAL":5,
						"TEXCOORD_0":6
					},
					"indices":7,
					"material":0
				}
			]
		},
		{
			"name":"Cube.009",
			"primitives":[
				{
					"attributes":{
						"POSITION":8,
						"NORMAL":9,
						"TEXCOORD_0":10
					},
					"indices":11,
					"material":0
				}
			]
		},
		{
			"name":"Cube.013",
			"primitives":[
				{
					"attributes":{
						"POSITION":12,
						"NORMAL":13,
						"TEXCOORD_0":14
					},
					"indices":15,
					"material":0
				}
			]
		},
		{
			"name":"Cube.014",
			"primitives":[
				{
					"attributes":{
						"POSITION":16,
						"NORMAL":17,
						"TEXCOORD_0":18
					},
					"indices":19,
					"material":0
				}
			]
		},
		{
			"name":"Cube.015",
			"primitives":[
				{
					"attributes":{
						"POSITION":20,
						"NORMAL":21,
						"TEXCOORD_0":22
					},
					"indices":23,
					"material":0
				}
			]
		},
		{
			"name":"Cube.018",
			"primitives":[
				{
					"attributes":{
						"POSITION":24,
						"NORMAL":25,
						"TEXCOORD_0":26
					},
					"indices":27
				}
			]
		},
		{
			"name":"Cube.012",
			"primitives":[
				{
					"attributes":{
						"POSITION":28,
						"NORMAL":29,
						"TEXCOORD_0":30
					},
					"indices":31
				}
			]
		},
		{
			"name":"Cube.007",
			"primitives":[
				{
					"attributes":{
						"POSITION":32,
						"NORMAL":33,
						"TEXCOORD_0":34
					},
					"indices":35
				}
			]
		},
		{
			"name":"Cube.011",
			"primitives":[
				{
					"attributes":{
						"POSITION":36,
						"NORMAL":37,
						"TEXCOORD_0":38
					},
					"indices":39
				}
			]
		},
		{
			"name":"Cube.008",
			"primitives":[
				{
					"attributes":{
						"POSITION":40,
						"NORMAL":41,
						"TEXCOORD_0":42
					},
					"indices":43
				}
			]
		},
		{
			"name":"Cube.001",
			"primitives":[
				{
					"attributes":{
						"POSITION":44,
						"NORMAL":45,
						"TEXCOORD_0":46
					},
					"indices":47
				}
			]
		}
	],
	"textures":[
		{
			"sampler":0,
			"source":0
		}
	],
	"images":[
		{
			"mimeType":"image/png",
			"name":"Feet Base Color",
			"uri":"Feet%20Base%20Color.png"
		}
	],
	"accessors":[
		{
			"bufferView":0,
			"componentType":5126,
			"count":36,
			"max":[
				3.957587718963623,
				-0.4122093915939331,
				1.065283179283142
			],
			"min":[
				-1.3441351652145386,
				-1.071768879890442,
				-1.0906771421432495
			],
			"type":"VEC3"
		},
		{
			"bufferView":1,
			"componentType":5126,
			"count":36,
			"type":"VEC3"
		},
		{
			"bufferView":2,
			"componentType":5126,
			"count":36,
			"type":"VEC2"
		},
		{
			"bufferView":3,
			"componentType":5123,
			"count":60,
			"type":"SCALAR"
		},
		{
			"bufferView":4,
			"componentType":5126,
			"count":40,
			"max":[
				1,
				1,
				1
			],
			"min":[
				-1,
				-1,
				-1
			],
			"type":"VEC3"
		},
		{
			"bufferView":5,
			"componentType":5126,
			"count":40,
			"type":"VEC3"
		},
		{
			"bufferView":6,
			"componentType":5126,
			"count":40,
			"type":"VEC2"
		},
		{
			"bufferView":7,
			"componentType":5123,
			"count":60,
			"type":"SCALAR"
		},
		{
			"bufferView":8,
			"componentType":5126,
			"count":40,
			"max":[
				1.2595281600952148,
				1.2212328910827637,
				1.4502671957015991
			],
			"min":[
				-1.1713175773620605,
				-0.778766930103302,
				-1.3083631992340088
			],
			"type":"VEC3"
		},
		{
			"bufferView":9,
			"componentType":5126,
			"count":40,
			"type":"VEC3"
		},
		{
			"bufferView":10,
			"componentType":5126,
			"count":40,
			"type":"VEC2"
		},
		{
			"bufferView":11,
			"componentType":5123,
			"count":60,
			"type":"SCALAR"
		},
		{
			"bufferView":12,
			"componentType":5126,
			"count":36,
			"max":[
				3.957587718963623,
				-0.4122091233730316,
				5.191327095031738
			],
			"min":[
				-1.3441351652145386,
				-1.0717685222625732,
				3.0353665351867676
			],
			"type":"VEC3"
		},
		{
			"bufferView":13,
			"componentType":5126,
			"count":36,
			"type":"VEC3"
		},
		{
			"bufferView":14,
			"componentType":5126,
			"count":36,
			"type":"VEC2"
		},
		{
			"bufferView":15,
			"componentType":5123,
			"count":60,
			"type":"SCALAR"
		},
		{
			"bufferView":16,
			"componentType":5126,
			"count":40,
			"max":[
				1,
				1.000000238418579,
				5.100649833679199
			],
			"min":[
				-1,
				-0.9999997019767761,
				3.100649833679199
			],
			"type":"VEC3"
		},
		{
			"bufferView":17,
			"componentType":5126,
			"count":40,
			"type":"VEC3"
		},
		{
			"bufferView":18,
			"componentType":5126,
			"count":40,
			"type":"VEC2"
		},
		{
			"bufferView":19,
			"componentType":5123,
			"count":60,
			"type":"SCALAR"
		},
		{
			"bufferView":20,
			"componentType":5126,
			"count":40,
			"max":[
				1.2595281600952148,
				1.2212326526641846,
				1.3083629608154297
			],
			"min":[
				-1.1713175773620605,
				-0.7787669897079468,
				-1.4502673149108887
			],
			"type":"VEC3"
		},
		{
			"bufferView":21,
			"componentType":5126,
			"count":40,
			"type":"VEC3"
		},
		{
			"bufferView":22,
			"componentType":5126,
			"count":40,
			"type":"VEC2"
		},
		{
			"bufferView":23,
			"componentType":5123,
			"count":60,
			"type":"SCALAR"
		},
		{
			"bufferView":24,
			"componentType":5126,
			"count":176,
			"max":[
				1.092541217803955,
				2.662991523742676,
				0.14787551760673523
			],
			"min":[
				0.7614778876304626,
				1.4206534624099731,
				-0.1944107562303543
			],
			"type":"VEC3"
		},
		{
			"bufferView":25,
			"componentType":5126,
			"count":176,
			"type":"VEC3"
		},
		{
			"bufferView":26,
			"componentType":5126,
			"count":176,
			"type":"VEC2"
		},
		{
			"bufferView":27,
			"componentType":5123,
			"count":264,
			"type":"SCALAR"
		},
		{
			"bufferView":28,
			"componentType":5126,
			"count":88,
			"max":[
				1.5390732288360596,
				3.1324732303619385,
				1.5161088705062866
			],
			"min":[
				-1.315047264099121,
				-4.147340774536133,
				-1.4559675455093384
			],
			"type":"VEC3"
		},
		{
			"bufferView":29,
			"componentType":5126,
			"count":88,
			"type":"VEC3"
		},
		{
			"bufferView":30,
			"componentType":5126,
			"count":88,
			"type":"VEC2"
		},
		{
			"bufferView":31,
			"componentType":5123,
			"count":132,
			"type":"SCALAR"
		},
		{
			"bufferView":32,
			"componentType":5126,
			"count":176,
			"max":[
				-0.7517576813697815,
				2.6629912853240967,
				0.14787615835666656
			],
			"min":[
				-1.082821011543274,
				1.4206535816192627,
				-0.19441016018390656
			],
			"type":"VEC3"
		},
		{
			"bufferView":33,
			"componentType":5126,
			"count":176,
			"type":"VEC3"
		},
		{
			"bufferView":34,
			"componentType":5126,
			"count":176,
			"type":"VEC2"
		},
		{
			"bufferView":35,
			"componentType":5123,
			"count":264,
			"type":"SCALAR"
		},
		{
			"bufferView":36,
			"componentType":5126,
			"count":88,
			"max":[
				1.5390732288360596,
				3.132473945617676,
				1.455967664718628
			],
			"min":[
				-1.315047264099121,
				-4.147339820861816,
				-1.516108751296997
			],
			"type":"VEC3"
		},
		{
			"bufferView":37,
			"componentType":5126,
			"count":88,
			"type":"VEC3"
		},
		{
			"bufferView":38,
			"componentType":5126,
			"count":88,
			"type":"VEC2"
		},
		{
			"bufferView":39,
			"componentType":5123,
			"count":132,
			"type":"SCALAR"
		},
		{
			"bufferView":40,
			"componentType":5126,
			"count":225,
			"max":[
				1.056347131729126,
				0.9399392604827881,
				0.9755846858024597
			],
			"min":[
				-1.1101113557815552,
				-1.5805871486663818,
				-0.9755846858024597
			],
			"type":"VEC3"
		},
		{
			"bufferView":41,
			"componentType":5126,
			"count":225,
			"type":"VEC3"
		},
		{
			"bufferView":42,
			"componentType":5126,
			"count":225,
			"type":"VEC2"
		},
		{
			"bufferView":43,
			"componentType":5123,
			"count":366,
			"type":"SCALAR"
		},
		{
			"bufferView":44,
			"componentType":5126,
			"count":176,
			"max":[
				0.4986385107040405,
				2.0376524925231934,
				0.7863143086433411
			],
			"min":[
				-0.4388255178928375,
				-0.18146681785583496,
				-0.7863143086433411
			],
			"type":"VEC3"
		},
		{
			"bufferView":45,
			"componentType":5126,
			"count":176,
			"type":"VEC3"
		},
		{
			"bufferView":46,
			"componentType":5126,
			"count":176,
			"type":"VEC2"
		},
		{
			"bufferView":47,
			"componentType":5123,
			"count":264,
			"type":"SCALAR"
		}
	],
	"bufferViews":[
		{
			"buffer":0,
			"byteLength":432,
			"byteOffset":0,
			"target":34962
		},
		{
			"buffer":0,
			"byteLength":432,
			"byteOffset":432,
			"target":34962
		},
		{
			"buffer":0,
			"byteLength":288,
			"byteOffset":864,
			"target":34962
		},
		{
			"buffer":0,
			"byteLength":120,
			"byteOffset":1152,
			"target":34963
		},
		{
			"buffer":0,
			"byteLength":480,
			"byteOffset":1272,
			"target":34962
		},
		{
			"buffer":0,
			"byteLength":480,
			"byteOffset":1752,
			"target":34962
		},
		{
			"buffer":0,
			"byteLength":320,
			"byteOffset":2232,
			"target":34962
		},
		{
			"buffer":0,
			"byteLength":120,
			"byteOffset":2552,
			"target":34963
		},
		{
			"buffer":0,
			"byteLength":480,
			"byteOffset":2672,
			"target":34962
		},
		{
			"buffer":0,
			"byteLength":480,
			"byteOffset":3152,
			"target":34962
		},
		{
			"buffer":0,
			"byteLength":320,
			"byteOffset":3632,
			"target":34962
		},
		{
			"buffer":0,
			"byteLength":120,
			"byteOffset":3952,
			"target":34963
		},
		{
			"buffer":0,
			"byteLength":432,
			"byteOffset":4072,
			"target":34962
		},
		{
			"buffer":0,
			"byteLength":432,
			"byteOffset":4504,
			"target":34962
		},
		{
			"buffer":0,
			"byteLength":288,
			"byteOffset":4936,
			"target":34962
		},
		{
			"buffer":0,
			"byteLength":120,
			"byteOffset":5224,
			"target":34963
		},
		{
			"buffer":0,
			"byteLength":480,
			"byteOffset":5344,
			"target":34962
		},
		{
			"buffer":0,
			"byteLength":480,
			"byteOffset":5824,
			"target":34962
		},
		{
			"buffer":0,
			"byteLength":320,
			"byteOffset":6304,
			"target":34962
		},
		{
			"buffer":0,
			"byteLength":120,
			"byteOffset":6624,
			"target":34963
		},
		{
			"buffer":0,
			"byteLength":480,
			"byteOffset":6744,
			"target":34962
		},
		{
			"buffer":0,
			"byteLength":480,
			"byteOffset":7224,
			"target":34962
		},
		{
			"buffer":0,
			"byteLength":320,
			"byteOffset":7704,
			"target":34962
		},
		{
			"buffer":0,
			"byteLength":120,
			"byteOffset":8024,
			"target":34963
		},
		{
			"buffer":0,
			"byteLength":2112,
			"byteOffset":8144,
			"target":34962
		},
		{
			"buffer":0,
			"byteLength":2112,
			"byteOffset":10256,
			"target":34962
		},
		{
			"buffer":0,
			"byteLength":1408,
			"byteOffset":12368,
			"target":34962
		},
		{
			"buffer":0,
			"byteLength":528,
			"byteOffset":13776,
			"target":34963
		},
		{
			"buffer":0,
			"byteLength":1056,
			"byteOffset":14304,
			"target":34962
		},
		{
			"buffer":0,
			"byteLength":1056,
			"byteOffset":15360,
			"target":34962
		},
		{
			"buffer":0,
			"byteLength":704,
			"byteOffset":16416,
			"target":34962
		},
		{
			"buffer":0,
			"byteLength":264,
			"byteOffset":17120,
			"target":34963
		},
		{
			"buffer":0,
			"byteLength":2112,
			"byteOffset":17384,
			"target":34962
		},
		{
			"buffer":0,
			"byteLength":2112,
			"byteOffset":19496,
			"target":34962
		},
		{
			"buffer":0,
			"byteLength":1408,
			"byteOffset":21608,
			"target":34962
		},
		{
			"buffer":0,
			"byteLength":528,
			"byteOffset":23016,
			"target":34963
		},
		{
			"buffer":0,
			"byteLength":1056,
			"byteOffset":23544,
			"target":34962
		},
		{
			"buffer":0,
			"byteLength":1056,
			"byteOffset":24600,
			"target":34962
		},
		{
			"buffer":0,
			"byteLength":704,
			"byteOffset":25656,
			"target":34962
		},
		{
			"buffer":0,
			"byteLength":264,
			"byteOffset":26360,
			"target":34963
		},
		{
			"buffer":0,
			"byteLength":2700,
			"byteOffset":26624,
			"target":34962
		},
		{
			"buffer":0,
			"byteLength":2700,
			"byteOffset":29324,
			"target":34962
		},
		{
			"buffer":0,
			"byteLength":1800,
			"byteOffset":32024,
			"target":34962
		},
		{
			"buffer":0,
			"byteLength":732,
			"byteOffset":33824,
			"target":34963
		},
		{
			"buffer":0,
			"byteLength":2112,
			"byteOffset":34556,
			"target":34962
		},
		{
			"buffer":0,
			"byteLength":2112,
			"byteOffset":36668,
			"target":34962
		},
		{
			"buffer":0,
			"byteLength":1408,
			"byteOffset":38780,
			"target":34962
		},
		{
			"buffer":0,
			"byteLength":528,
			"byteOffset":40188,
			"target":34963
		}
	],
	"samplers":[
		{
			"magFilter":9729,
			"minFilter":9987
		}
	],
	"buffers":[
		{
			"byteLength":40716,
			"uri":"champ1.bin"
		}
	]
}
